<?xml version="1.0" standalone="no"?>
<!DOCTYPE svg PUBLIC "-//W3C//DTD SVG 20010904//EN"
 "http://www.w3.org/TR/2001/REC-SVG-20010904/DTD/svg10.dtd">
<svg version="1.0" xmlns="http://www.w3.org/2000/svg"
 width="1024.000000pt" height="1024.000000pt" viewBox="0 0 1024.000000 1024.000000"
 preserveAspectRatio="xMidYMid meet">

<g transform="translate(0.000000,1024.000000) scale(0.100000,-0.100000)"
fill="#000000" stroke="none">
<path d="M4905 7859 c-460 -43 -880 -257 -1160 -590 -290 -346 -462 -795 -530
-1384 -53 -462 -41 -844 36 -1153 136 -551 471 -863 1058 -986 204 -43 365
-58 702 -63 650 -11 1027 48 1343 210 406 208 629 586 685 1161 31 314 -1 820
-74 1175 -162 793 -596 1339 -1228 1545 -245 81 -547 111 -832 85z"/>
<path d="M4930 3103 c-616 -42 -1166 -230 -1663 -570 -803 -548 -1342 -1411
-1501 -2405 -9 -54 -16 -105 -16 -113 0 -13 370 -15 3370 -15 l3370 0 -5 28
c-3 15 -14 83 -25 152 -12 69 -35 181 -51 250 -336 1383 -1450 2436 -2792
2639 -225 34 -495 48 -687 34z"/>
</g>
</svg>
